<svg xmlns="http://www.w3.org/2000/svg" viewBox="0 0 64 64">
  <defs>
    <radialGradient id="bg" cx="30%" cy="22%" r="95%">
      <stop offset="0" stop-color="#1C2748"/><stop offset=".55" stop-color="#0D1226"/><stop offset="1" stop-color="#060912"/>
    </radialGradient>
    <linearGradient id="pl" x1="0" y1="0" x2="1" y2="1">
      <stop offset="0" stop-color="#F7D47B"/><stop offset=".55" stop-color="#E3B34C"/><stop offset="1" stop-color="#A96F1E"/>
    </linearGradient>
    <linearGradient id="rg" x1="0" y1="0" x2="1" y2="1">
      <stop offset="0" stop-color="#9FE6F5"/><stop offset="1" stop-color="#3A7B94"/>
    </linearGradient>
    <radialGradient id="gl" cx="50%" cy="50%" r="50%">
      <stop offset=".4" stop-color="#E3B34C" stop-opacity=".35"/><stop offset="1" stop-color="#E3B34C" stop-opacity="0"/>
    </radialGradient>
    <clipPath id="front"><rect x="-6" y="32" width="76" height="40" transform="rotate(-18 32 32)"/></clipPath>
  </defs>
  <rect width="64" height="64" rx="14" fill="url(#bg)"/>
  <circle cx="32" cy="32" r="21" fill="url(#gl)"/>
  <ellipse cx="32" cy="32" rx="22" ry="7.6" fill="none" stroke="url(#rg)" stroke-width="2.4" opacity=".5" transform="rotate(-18 32 32)"/>
  <circle cx="32" cy="32" r="11.5" fill="url(#pl)"/>
  <path d="M32 20.5a11.5 11.5 0 0 0 0 23 15 15 0 0 1 0-23z" fill="#7E5417" opacity=".5"/>
  <g clip-path="url(#front)">
    <ellipse cx="32" cy="32" rx="22" ry="7.6" fill="none" stroke="url(#rg)" stroke-width="2.6" transform="rotate(-18 32 32)"/>
  </g>
  <path d="M49.5 10.5l1.2 2.8 2.8 1.2-2.8 1.2-1.2 2.8-1.2-2.8-2.8-1.2 2.8-1.2z" fill="#EDE7D8"/>
  <circle cx="14.5" cy="17.5" r="2" fill="#C9CFD8"/>
  <path d="M14.5 15.7a1.8 1.8 0 0 0 0 3.6 2.3 2.3 0 0 1 0-3.6z" fill="#8B93AD"/>
  <circle cx="52" cy="50" r="1.2" fill="#8B93AD"/>
  <circle cx="11" cy="47" r="0.9" fill="#6B7390"/>
</svg>
